<?xml version="1.0" encoding="UTF-8"?>
<svg width="11701px" height="5812px" viewBox="0 0 11701 5812" version="1.1" xmlns="http://www.w3.org/2000/svg" xmlns:xlink="http://www.w3.org/1999/xlink">
    <title>Google Hero</title>
    <g id="Google-Hero" stroke="none" stroke-width="1" fill="none" fill-rule="evenodd">
        <rect fill="#FFFFFF" x="0" y="0" width="11701" height="5812"></rect>
        <rect id="Change-BG" fill="#FAF9FF" x="0" y="1" width="11700" height="5845" rx="100"></rect>
        <g id="Google_2015_logo" transform="translate(3818.000000, 2254.000000)" fill-rule="nonzero">
            <path d="M1739.58,704.636182 C1739.58,897.152314 1588.97419,1039.01424 1404.14664,1039.01424 C1219.31909,1039.01424 1068.71328,897.152314 1068.71328,704.636182 C1068.71328,510.76324 1219.31909,370.258122 1404.14664,370.258122 C1588.97419,370.258122 1739.58,510.76324 1739.58,704.636182 Z M1592.7431,704.636182 C1592.7431,584.332443 1505.45505,502.019359 1404.14664,502.019359 C1302.83823,502.019359 1215.55018,584.332443 1215.55018,704.636182 C1215.55018,823.733867 1302.83823,907.253004 1404.14664,907.253004 C1505.45505,907.253004 1592.7431,823.583111 1592.7431,704.636182 Z" id="Shape" fill="#EA4335"></path>
            <path d="M2463.2115,704.636182 C2463.2115,897.152314 2312.6057,1039.01424 2127.77815,1039.01424 C1942.9506,1039.01424 1792.34479,897.152314 1792.34479,704.636182 C1792.34479,510.913996 1942.9506,370.258122 2127.77815,370.258122 C2312.6057,370.258122 2463.2115,510.76324 2463.2115,704.636182 Z M2316.37461,704.636182 C2316.37461,584.332443 2229.08656,502.019359 2127.77815,502.019359 C2026.46974,502.019359 1939.18169,584.332443 1939.18169,704.636182 C1939.18169,823.733867 2026.46974,907.253004 2127.77815,907.253004 C2229.08656,907.253004 2316.37461,823.583111 2316.37461,704.636182 Z" id="Shape" fill="#FBBC05"></path>
            <path d="M3156.6917,390.459502 L3156.6917,990.772141 C3156.6917,1237.71139 3011.06086,1338.56753 2838.89686,1338.56753 C2676.83356,1338.56753 2579.29406,1230.17356 2542.50946,1141.5287 L2670.35102,1088.31164 C2693.11526,1142.73476 2748.89519,1206.95705 2838.74611,1206.95705 C2948.94915,1206.95705 3017.24188,1138.96584 3017.24188,1010.97352 L3017.24188,962.882176 L3012.11615,962.882176 C2979.25122,1003.43569 2915.93347,1038.86348 2836.03249,1038.86348 C2668.84346,1038.86348 2515.67479,893.232644 2515.67479,705.842234 C2515.67479,517.095016 2668.84346,370.258122 2836.03249,370.258122 C2915.78271,370.258122 2979.10047,405.685915 3012.11615,445.033378 L3017.24188,445.033378 L3017.24188,390.610258 L3156.6917,390.610258 L3156.6917,390.459502 Z M3027.64408,705.842234 C3027.64408,588.101357 2949.09991,502.019359 2849.14831,502.019359 C2747.8399,502.019359 2662.96395,588.101357 2662.96395,705.842234 C2662.96395,822.377058 2747.8399,907.253004 2849.14831,907.253004 C2949.09991,907.253004 3027.64408,822.377058 3027.64408,705.842234 Z" id="Shape" fill="#4285F4"></path>
            <polygon id="Path" fill="#34A853" points="3386.59546 38.5936805 3386.59546 1018.51135 3243.37672 1018.51135 3243.37672 38.5936805"></polygon>
            <path d="M3944.69626,814.688474 L4058.66822,890.669782 C4021.88362,945.092902 3933.23876,1038.86348 3780.07009,1038.86348 C3590.11682,1038.86348 3448.2549,892.026591 3448.2549,704.485425 C3448.2549,505.637517 3591.32287,370.107365 3763.63763,370.107365 C3937.15843,370.107365 4022.03438,508.200378 4049.77359,582.824878 L4065,620.815532 L3618.00679,805.944593 C3652.22853,873.031264 3705.44559,907.253004 3780.07009,907.253004 C3854.84535,907.253004 3906.70561,870.468402 3944.69626,814.688474 Z M3593.88574,694.384735 L3892.68525,570.312083 C3876.25278,528.552514 3826.80463,499.456498 3768.61259,499.456498 C3693.9881,499.456498 3590.11682,565.337116 3593.88574,694.384735 L3593.88574,694.384735 Z" id="Shape" fill="#EA4335"></path>
            <path d="M526.592679,617.649644 L526.592679,475.787717 L1004.64174,475.787717 C1009.3152,500.511794 1011.7273,529.758567 1011.7273,561.417445 C1011.7273,667.85158 982.631286,799.462061 888.860703,893.232644 C797.652982,988.209279 681.118158,1038.86348 526.743436,1038.86348 C240.607477,1038.86348 1.45519152e-11,805.793836 1.45519152e-11,519.657877 C1.45519152e-11,233.521918 240.607477,0.452269693 526.743436,0.452269693 C685.037828,0.452269693 797.803738,62.5639742 882.528927,143.520249 L782.426569,243.622608 C721.671673,186.636627 639.358589,142.314197 526.592679,142.314197 C317.644081,142.314197 154.223965,310.709279 154.223965,519.657877 C154.223965,728.606475 317.644081,897.001558 526.592679,897.001558 C662.12283,897.001558 739.310191,842.578438 788.758344,793.130285 C828.859591,753.029039 855.241989,695.741544 865.644192,617.498887 L526.592679,617.649644 Z" id="Path" fill="#4285F4"></path>
        </g>
    </g>
</svg>