<?xml version="1.0" encoding="UTF-8"?>
<svg width="11701px" height="5812px" viewBox="0 0 11701 5812" version="1.1" xmlns="http://www.w3.org/2000/svg" xmlns:xlink="http://www.w3.org/1999/xlink">
    <title>Lenmo Hero</title>
    <g id="Lenmo-Hero" stroke="none" stroke-width="1" fill="none" fill-rule="evenodd">
        <rect fill="#FFFFFF" x="0" y="0" width="11701" height="5812"></rect>
        <rect id="Change-BG" fill="#000000" x="0" y="1" width="11700" height="5845" rx="100"></rect>
        <g id="Group" transform="translate(3818.000000, 2455.000000)" fill="#FFFFFF">
            <path d="M4064.736,547.6392 C4064.736,762.1248 3890.856,936.0024 3676.368,936.0024 C3461.88,936.0024 3288,762.1248 3288,547.6392 C3288,333.1512 3461.88,159.27528 3676.368,159.27528 C3890.856,159.27528 4064.736,333.1512 4064.736,547.6392 Z M3857.472,547.632 C3857.472,647.6472 3776.376,728.724 3676.368,728.724 C3576.36,728.724 3495.288,647.6472 3495.288,547.632 C3495.288,447.6192 3576.36,366.5424 3676.368,366.5424 C3776.376,366.5424 3857.472,447.6192 3857.472,547.632 Z" id="Shape"></path>
            <path d="M1223.9904,591.2712 L1348.3536,591.2712 C1350.5352,575.9976 1350.5352,560.7264 1350.5352,545.4528 C1350.5352,331.6344 1175.9904,157.08984 962.172,157.08984 C748.356,157.08984 573.8088,331.6344 573.8088,545.4528 C573.8088,759.2712 748.356,933.816 962.172,933.816 C1145.4456,933.816 1295.9904,807.2712 1339.6272,639.2712 L1117.0824,639.2712 C1084.3536,691.6344 1027.6272,726.5448 962.172,726.5448 C877.0824,726.5448 807.264,667.6344 787.6272,591.2712 L1138.9008,591.2712 L1223.9904,591.2712 Z M962.172,366.5448 C1023.264,366.5448 1077.8088,397.0896 1110.5352,442.908 L813.8088,442.908 C846.5376,397.0896 901.0824,366.5448 962.172,366.5448 Z" id="Shape" fill-rule="nonzero"></path>
            <path d="M0,916.3632 L43.63632,916.3632 C159.27264,916.3632 250.908,822.5448 250.908,709.0896 L250.908,0 L207.2724,0 C91.63632,0 0,93.81816 0,207.2724 L0,916.3632 Z" id="Path" fill-rule="nonzero"></path>
            <path d="M440.7312,643.6344 C373.0944,643.6344 318.5496,693.816 307.6416,757.0896 C290.1864,842.1792 240.0048,883.6344 240.0048,883.6344 C224.73192,894.5424 231.27744,916.3608 248.7312,916.3608 L440.7312,916.3608 C514.9128,916.3608 576.0048,855.2712 576.0048,781.0896 C578.1864,704.7264 517.0944,643.6344 440.7312,643.6344 Z" id="Path" fill-rule="nonzero"></path>
            <path d="M1826.1792,167.99424 C1743.2712,167.99424 1666.908,213.81216 1618.908,259.6296 C1607.9976,209.44872 1583.9976,174.53952 1525.0896,174.53952 L1407.2712,174.53952 L1407.2712,916.356 L1625.4528,916.356 L1625.4528,523.6296 C1625.4528,447.2664 1701.816,383.9928 1778.1792,383.9928 C1854.5424,383.9928 1902.5424,445.0848 1902.5424,523.6296 L1902.5424,916.356 L2120.724,916.356 L2120.724,510.54 C2116.3608,314.1768 2022.5424,167.99424 1826.1792,167.99424 Z" id="Path" fill-rule="nonzero"></path>
            <path d="M2969.448,167.99424 C2875.632,167.99424 2794.896,198.53952 2753.448,248.7216 C2705.448,200.72136 2635.632,167.99424 2546.184,167.99424 C2493.816,167.99424 2421.816,202.9032 2391.2664,239.994 C2380.3584,202.9032 2351.9952,174.53952 2301.8136,174.53952 L2183.9952,174.53952 L2183.9952,916.356 L2402.184,916.356 L2402.184,523.6296 C2402.184,447.2664 2428.368,383.9928 2504.712,383.9928 C2581.08,383.9928 2607.264,445.0848 2607.264,523.6296 L2607.264,916.356 L2825.448,916.356 L2825.448,523.6296 C2825.448,447.2664 2851.632,383.9928 2928,383.9928 C3004.368,383.9928 3030.528,445.0848 3030.528,523.6296 L3030.528,916.356 L3248.712,916.356 L3248.712,427.6296 C3246.528,281.448 3141.816,167.99424 2969.448,167.99424 Z" id="Path" fill-rule="nonzero"></path>
        </g>
    </g>
</svg>