<?xml version="1.0" encoding="UTF-8"?>
<svg width="11701px" height="5812px" viewBox="0 0 11701 5812" version="1.1" xmlns="http://www.w3.org/2000/svg" xmlns:xlink="http://www.w3.org/1999/xlink">
    <title>Tableau Hero</title>
    <defs>
        <polygon id="path-1" points="0 1600 5783.76505 1600 5783.76505 0.377733749 0 0.377733749"></polygon>
    </defs>
    <g id="Tableau-Hero" stroke="none" stroke-width="1" fill="none" fill-rule="evenodd">
        <rect fill="#FFFFFF" x="0" y="0" width="11701" height="5812"></rect>
        <rect id="Change-BG" fill="#FAFAFA" x="0" y="1" width="11700" height="5845" rx="100"></rect>
        <g id="tableau-software-seeklogo.com" transform="translate(2958.000000, 2124.000000)">
            <polygon id="Fill-1" fill="#DA6E33" points="1045.15406 790.056048 893.839967 790.056048 893.839967 625.658263 834.339304 625.658263 834.339304 790.056048 683.02521 790.056048 683.02521 848.400548 834.339304 848.400548 834.339304 1012.88515 893.839967 1012.88515 893.839967 848.400548 1045.15406 848.400548"></polygon>
            <polygon id="Fill-2" fill="#B42536" points="740.392157 1058.07013 604.685453 1058.07013 604.685453 910.70028 553.409785 910.70028 553.409785 1058.07013 417.703081 1058.07013 417.703081 1102.9634 553.409785 1102.9634 553.409785 1250.42017 604.685453 1250.42017 604.685453 1102.9634 740.392157 1102.9634"></polygon>
            <polygon id="Fill-3" fill="#5A808D" points="1309.57983 532.312398 1173.96004 532.312398 1173.96004 384.537815 1122.59746 384.537815 1122.59746 532.312398 986.890756 532.312398 986.890756 577.1044 1122.59746 577.1044 1122.59746 723.361345 1173.96004 723.361345 1173.96004 577.1044 1309.57983 577.1044"></polygon>
            <polygon id="Fill-4" fill="#545D80" points="977.927171 1222.0907 885.998155 1222.0907 885.998155 1119.55182 842.181116 1119.55182 842.181116 1222.0907 750.252101 1222.0907 750.252101 1261.71883 842.181116 1261.71883 842.181116 1364.2577 885.998155 1364.2577 885.998155 1261.71883 977.927171 1261.71883"></polygon>
            <polygon id="Fill-5" fill="#E08936" points="740.392157 531.73117 603.164565 531.73117 603.164565 383.641457 555.017582 383.641457 555.017582 531.73117 417.703081 531.73117 417.703081 575.184724 555.017582 575.184724 555.017582 723.361345 603.164565 723.361345 603.164565 575.184724 740.392157 575.184724"></polygon>
            <polygon id="Fill-6" fill="#545D80" points="1413.55742 799.905822 1321.64512 799.905822 1321.64512 697.366947 1277.79466 697.366947 1277.79466 799.905822 1185.88235 799.905822 1185.88235 839.44724 1277.79466 839.44724 1277.79466 942.072829 1321.64512 942.072829 1321.64512 839.44724 1413.55742 839.44724"></polygon>
            <polygon id="Fill-7" fill="#263C6A" points="1309.57983 1058.07013 1173.96004 1058.07013 1173.96004 910.70028 1122.59746 910.70028 1122.59746 1058.07013 986.890756 1058.07013 986.890756 1102.9634 1122.59746 1102.9634 1122.59746 1250.42017 1173.96004 1250.42017 1173.96004 1102.9634 1309.57983 1102.9634"></polygon>
            <polygon id="Fill-8" fill="#6C9198" points="848.195323 278.767507 848.195323 379.629665 757.422969 379.629665 757.422969 410.105687 848.195323 410.105687 848.195323 510.92437 880.967004 510.92437 880.967004 410.105687 971.652661 410.105687 971.652661 379.629665 880.967004 379.629665 880.967004 278.767507"></polygon>
            <polygon id="Fill-9" fill="#6C9198" points="404.571374 704.537815 404.571374 803.291149 313.72549 803.291149 313.72549 835.07833 404.571374 834.556516 404.571374 934.005602 436.501924 934.005602 436.501924 834.295609 527.955182 833.904248 527.955182 803.291149 436.501924 803.291149 436.501924 704.537815"></polygon>
            <g id="Group-20">
                <path d="M3149.21032,994.648239 C3214.76325,994.648239 3252.31509,957.186258 3252.31509,890.206145 C3252.31509,824.398076 3214.50277,784.89587 3155.54855,784.89587 C3129.80492,784.89587 3105.53731,793.707901 3087.73817,801.955614 L3087.73817,982.927805 C3109.44444,990.915064 3129.63127,994.648239 3149.21032,994.648239 L3149.21032,994.648239 Z M3087.73817,737.059134 C3120.81852,724.123247 3150.12198,720.303253 3169.04985,720.303253 C3262.7341,720.303253 3326.07298,786.067914 3326.07298,889.424783 C3326.07298,996.688463 3259.52157,1059.32767 3142.09067,1059.32767 C3101.36971,1059.32767 3061.47359,1051.38382 3019.49367,1037.18908 L3017.45328,563.249431 L3087.73817,563.249431 L3087.73817,737.059134 Z" id="Fill-10" fill="#263C6A"></path>
                <mask id="mask-2" fill="white">
                    <use xlink:href="#path-1"></use>
                </mask>
                <g id="Clip-13"></g>
                <polygon id="Fill-12" fill="#263C6A" mask="url(#mask-2)" points="3595.12216 1118.76764 3664.58222 1118.76764 3664.58222 496.716431 3595.12216 496.716431"></polygon>
                <path d="M4104.19924,1060.60824 C3997.18734,1050.10326 3944.96207,974.96225 3948.00094,885.80013 C3951.25688,789.475522 4013.55387,721.149729 4108.62732,721.149729 C4208.3025,721.149729 4266.12799,794.901649 4261.22237,903.771463 L4021.19448,903.771463 C4026.88152,963.93636 4063.08757,992.62972 4112.49103,996.276077 C4153.81977,999.575162 4211.86232,990.242224 4243.42324,970.404303 L4243.42324,1036.68987 C4201.87744,1056.87506 4158.63856,1065.86073 4104.19924,1060.60824 M4025.53573,852.548823 L4184.98997,852.548823 C4183.21005,810.094804 4160.41847,788.043024 4119.69751,785.481892 C4078.84632,782.877351 4039.16726,809.139806 4025.53573,852.548823" id="Fill-14" fill="#263C6A" mask="url(#mask-2)"></path>
                <path d="M5257.17536,1005.83908 C5301.28249,1005.83908 5330.93325,983.353213 5330.93325,933.085572 L5330.93325,727.41365 L5401.21815,727.41365 L5401.21815,941.810784 C5401.21815,1013.47907 5345.51987,1057.23536 5257.17536,1057.23536 C5168.83085,1057.23536 5113.2194,1013.47907 5113.2194,941.810784 L5113.2194,727.41365 L5183.33064,727.41365 L5183.33064,933.085572 C5183.33064,983.353213 5213.06823,1005.83908 5257.17536,1005.83908" id="Fill-15" fill="#263C6A" mask="url(#mask-2)"></path>
                <path d="M2548.1334,994.648239 C2564.15263,994.474603 2583.55803,993.30256 2608.25976,987.008252 L2609.51872,807.511968 C2587.03103,792.188585 2565.41159,784.89587 2541.70835,784.89587 C2482.75413,784.89587 2444.94181,824.398076 2444.94181,890.206145 C2444.94181,957.186258 2482.58048,995.646646 2548.1334,994.648239 M2555.16623,1059.3291 C2437.73533,1059.67495 2371.27074,996.688463 2371.27074,889.424783 C2371.27074,786.067914 2434.69645,720.303253 2528.3807,720.303253 C2559.8982,720.303253 2586.11937,727.248696 2609.51872,742.485261 L2609.51872,718.783938 L2679.80362,718.783938 L2677.85005,1037.18908 C2648.19929,1050.08155 2599.66408,1059.24086 2555.16623,1059.3291" id="Fill-16" fill="#263C6A" mask="url(#mask-2)"></path>
                <path d="M4709.26143,994.648837 C4723.15344,994.648837 4744.59923,993.30256 4769.38779,987.008252 L4770.64675,807.511968 C4748.15906,792.188585 4726.53962,784.89587 4702.83637,784.89587 C4643.88215,784.89587 4605.98301,824.398076 4605.98301,890.206145 C4605.98301,957.186258 4643.62168,994.821875 4709.26143,994.648837 M4716.20744,1059.3291 C4598.77653,1059.67495 4532.39877,996.688463 4532.39877,889.424783 C4532.39877,786.067914 4595.73765,720.303253 4689.33508,720.303253 C4721.02623,720.303253 4747.16057,727.248696 4770.64675,742.485261 L4770.64675,718.783938 L4840.84482,718.783938 L4838.71761,1037.18908 C4809.32732,1050.08155 4760.74869,1059.24086 4716.20744,1059.3291" id="Fill-17" fill="#263C6A" mask="url(#mask-2)"></path>
                <polygon id="Fill-18" fill="#263C6A" mask="url(#mask-2)" points="1860.3139 585.735302 1929.77395 585.735302 1929.77395 782.942465 2117.6634 782.942465 2117.6634 847.795536 1929.77395 847.795536 1929.77395 1061.62835 1860.3139 1061.62835 1860.3139 847.795536 1672.51128 847.795536 1672.51128 782.942465 1860.3139 782.942465"></polygon>
                <path d="M5508.83348,764.715018 L5514.08639,764.715018 C5520.29439,764.715018 5525.46048,762.501159 5525.46048,756.727759 C5525.46048,752.690721 5522.46501,748.610273 5514.08639,748.610273 C5511.6987,748.610273 5510.09244,748.697091 5508.83348,749.044363 L5508.83348,764.715018 Z M5508.83348,790.499974 L5501.36652,790.499974 L5501.36652,743.922099 C5505.36047,743.4446 5509.00713,742.836874 5514.52052,742.836874 C5521.64017,742.836874 5526.19849,744.35619 5528.93348,746.396413 C5531.79871,748.436637 5533.18791,751.562086 5533.18791,756.076624 C5533.18791,762.067068 5529.19396,765.713426 5524.20151,767.362968 L5524.20151,767.666832 C5528.23888,768.448194 5531.06069,772.181369 5531.88553,778.953176 C5533.01426,786.245891 5534.1864,788.893841 5534.881,790.499974 L5527.15357,790.499974 C5526.11167,788.893841 5524.8527,784.639757 5524.02786,778.605904 C5522.89914,772.702277 5519.86026,770.488418 5513.99957,770.488418 L5508.83348,770.488418 L5508.83348,790.499974 Z M5516.64773,731.159848 C5498.32764,731.159848 5483.30691,746.830504 5483.30691,766.234334 C5483.30691,785.985437 5498.32764,801.525865 5516.82138,801.525865 C5535.27171,801.699501 5550.03197,785.985437 5550.03197,766.321152 C5550.03197,746.830504 5535.27171,731.159848 5516.82138,731.159848 L5516.64773,731.159848 Z M5516.82138,724.518269 C5539.52614,724.518269 5557.67258,743.01051 5557.67258,766.234334 C5557.67258,789.718612 5539.52614,808.037217 5516.64773,808.037217 C5493.89957,808.037217 5475.27559,789.718612 5475.27559,766.234334 C5475.27559,743.01051 5493.89957,724.518269 5516.64773,724.518269 L5516.82138,724.518269 Z" id="Fill-19" fill="#263C6A" mask="url(#mask-2)"></path>
            </g>
        </g>
    </g>
</svg>